<?xml version="1.0" standalone="no"?>
<!DOCTYPE svg PUBLIC "-//W3C//DTD SVG 20010904//EN"
 "http://www.w3.org/TR/2001/REC-SVG-20010904/DTD/svg10.dtd">
<svg version="1.0" xmlns="http://www.w3.org/2000/svg"
 width="700.000000pt" height="700.000000pt" viewBox="0 0 700.000000 700.000000"
 preserveAspectRatio="xMidYMid meet">
<metadata>
Created by potrace 1.14, written by Peter Selinger 2001-2017
</metadata>
<g transform="translate(0.000000,700.000000) scale(0.100000,-0.100000)"
fill="#000000" stroke="none">
<path d="M3278 6995 c-1 -1 -42 -5 -89 -9 -47 -4 -95 -8 -105 -10 -10 -2 -41
-7 -69 -10 -335 -44 -715 -158 -1030 -312 -180 -87 -448 -247 -555 -331 -8 -6
-51 -40 -95 -74 -342 -266 -650 -623 -875 -1014 -47 -83 -170 -327 -170 -340
0 -3 -9 -24 -20 -48 -57 -123 -157 -435 -186 -582 -2 -11 -10 -54 -19 -95 -29
-147 -36 -200 -52 -370 -15 -169 -7 -660 13 -691 2 -4 -4 -12 -13 -18 -17 -10
-17 -10 0 -11 12 0 17 -8 18 -27 1 -29 2 -39 13 -113 6 -37 25 -134 41 -210
21 -96 91 -339 114 -395 5 -11 25 -65 46 -120 64 -170 213 -461 314 -615 213
-323 469 -603 771 -845 92 -74 370 -265 386 -265 4 0 15 -6 23 -14 47 -41 413
-212 576 -270 79 -27 261 -84 291 -90 10 -2 57 -13 104 -25 109 -26 200 -43
299 -57 25 -3 57 -8 71 -10 162 -25 683 -25 841 1 13 2 47 7 74 10 71 10 87
13 115 18 14 3 43 8 65 12 115 21 314 74 455 122 188 64 473 192 614 278 32
19 62 35 67 35 5 0 9 5 9 10 0 6 5 10 10 10 15 0 220 141 330 227 152 118 324
280 450 422 36 41 70 79 76 85 6 6 48 61 94 121 150 197 277 405 383 628 26
53 47 99 47 102 0 2 11 28 24 57 57 127 151 422 182 573 22 108 54 294 54 316
0 18 6 29 18 32 16 4 16 5 0 6 -10 0 -15 7 -13 14 18 51 28 527 15 672 -15
155 -21 210 -25 225 -2 8 -7 35 -10 60 -17 129 -80 384 -136 552 -348 1036
-1168 1857 -2204 2206 -168 57 -420 119 -555 137 -19 3 -46 7 -60 10 -13 2
-52 7 -86 11 -33 3 -74 8 -90 10 -33 5 -540 14 -546 9z"/>
</g>
</svg>
