<svg xmlns="http://www.w3.org/2000/svg" viewBox="0 0 2000 2000"><defs><style>.cls-1{fill:#1a1a1a;}.cls-2{fill:#fff;}</style></defs><g id="OS_cutted"><path class="cls-1" d="M.11,1014.31a1008.63,1008.63,0,0,0,6.78,103.61l1001.22-15.85,985,15.82a1007.85,1007.85,0,0,0,6.78-103.57l-992.26,15.93Z"/><path class="cls-1" d="M7.15,1120c59.28,495.7,481.18,880,992.85,880s933.57-384.3,992.85-880ZM632.5,1506c-224.09,0-390.37-150.53-430.78-383.55H339.57c34.2,157.68,139.13,280.39,300.19,280.39,160.82,0,265.55-118.7,300.72-280.39h135.18C1029,1373.84,847.41,1506,632.5,1506Zm819.46-1.45c-94.44,0-197.6-27.61-249.91-62.48L1234,1336c56.66,34.87,139.48,63.93,226.66,63.93,129.32,0,204.87-68.29,204.87-167.09,0-44.68-12.47-80-40.6-110.39h152.8c11.38,29.64,17.11,62.76,17.11,100.22C1794.86,1373.78,1683,1504.55,1452,1504.55Z"/><path class="cls-1" d="M1999.92,1012.33c0-4.11.08-8.21.08-12.33C2000,447.72,1552.28,0,1000,0S0,447.72,0,1000c0,4.12,0,8.22.08,12.33Zm-460.78-517.6c100.26,0,172.9,23.25,216.49,47.95l-34.87,103.16c-32-17.43-97.35-46.49-186-46.49-133.67,0-184.53,79.91-184.53,146.75,0,91.53,59.58,136.58,194.7,188.88,58,22.37,105.93,46.7,143.84,75H1411.71c-118.58-55.33-189.32-132.59-189.32-249.38C1222.39,608.06,1348.8,494.73,1539.14,494.73Zm-892.11,0c267.34,0,440.24,204.87,440.24,495.47q0,10-.24,19.81H953.45q.15-7,.15-14c0-194.7-101.71-398.12-312.39-398.12-209.22,0-313.84,193.25-313.84,408.29,0,1.28,0,2.56,0,3.83H192.25v-.92C192.25,698.15,385.49,494.73,647,494.73Z"/></g><g id="OS"><polyline id="bottom_bar" data-name="bottom bar" class="cls-2" points="-2144.52 1120 -1011.88 1102.08 104.3 1120"/><polyline id="top_bar" data-name="top bar" class="cls-2" points="-2145 1012.33 -1012.37 1030.25 103.82 1012.33"/></g></svg>