<svg xmlns="http://www.w3.org/2000/svg" viewBox="0 0 2000 2000"><defs><style>.cls-1{fill:#1a1a1a;}.cls-2{fill:#fff;}</style></defs><g id="OS"><circle class="cls-1" cx="1000" cy="1000" r="1000"/><polyline id="bottom_bar" data-name="bottom bar" class="cls-2" points="-124.52 1120 1008.12 1102.08 2124.3 1120"/><polyline id="top_bar" data-name="top bar" class="cls-2" points="-125 1012.33 1007.63 1030.25 2123.82 1012.33"/><path class="cls-2" d="M1625,1122.45c28.13,30.38,40.6,65.71,40.6,110.39,0,98.8-75.55,167.09-204.87,167.09-87.18,0-170-29.06-226.66-63.93l-32,106.07c52.31,34.87,155.47,62.48,249.91,62.48,231,0,342.9-130.77,342.9-281.88,0-37.46-5.73-70.58-17.11-100.22Z"/><path class="cls-2" d="M1411.71,1010h277.08c-37.91-28.33-85.88-52.66-143.84-75-135.12-52.3-194.7-97.35-194.7-188.88,0-66.84,50.86-146.75,184.53-146.75,88.63,0,154,29.06,186,46.49l34.87-103.16c-43.58-24.7-116.23-47.95-216.49-47.95-190.34,0-316.75,113.33-316.75,265.9C1222.39,877.41,1293.13,954.68,1411.71,1010Z"/><path class="cls-2" d="M940.48,1122.45c-35.17,161.69-139.9,280.39-300.72,280.39-161.06,0-266-122.71-300.19-280.39H201.72C242.13,1355.47,408.41,1506,632.5,1506c214.9,0,396.5-132.16,443.16-383.55Z"/><path class="cls-2" d="M327.39,1010c0-1.27,0-2.55,0-3.83,0-215,104.62-408.29,313.84-408.29C851.89,597.89,953.6,801.31,953.6,996q0,7-.15,14H1087q.24-9.81.24-19.81c0-290.6-172.9-495.47-440.24-495.47-261.54,0-454.78,203.42-454.78,514.36v.92Z"/></g></svg>